<svg width="39" height="38" viewBox="0 0 39 38" fill="none" xmlns="http://www.w3.org/2000/svg">
<path d="M18.0553 14.6477V16.371H16.332V18.9558H18.0553V26.7104H21.5018V18.9558H23.7937L24.0866 16.371H21.5018V14.8631C21.5018 14.1652 21.5707 13.7947 22.6477 13.7947H24.0866V11.2012H21.7775C19.0203 11.2012 18.0553 12.4936 18.0553 14.6477Z" fill="#1976D2"/>
<path d="M19.7799 0C9.31098 0 0.824219 8.48676 0.824219 18.9557C0.824219 29.4247 9.31098 37.9115 19.7799 37.9115C30.2489 37.9115 38.7357 29.4247 38.7357 18.9557C38.7357 8.48676 30.2489 0 19.7799 0ZM19.7799 36.1882C10.2627 36.1882 2.54749 28.473 2.54749 18.9557C2.54749 9.43847 10.2627 1.72327 19.7799 1.72327C29.2972 1.72327 37.0124 9.43847 37.0124 18.9557C37.0124 28.473 29.2972 36.1882 19.7799 36.1882Z" fill="#1976D2"/>
</svg>
