<svg width="272" height="272" viewBox="0 0 272 272" fill="none" xmlns="http://www.w3.org/2000/svg">
<path d="M271.682 20.3054C271.093 9.50084 262.5 0.908906 251.696 0.319217C229.894 -0.871849 187.232 0.286812 146.439 21.3865C125.643 32.1433 103.649 50.3807 86.0969 71.4225C85.8807 71.6817 85.6703 71.9426 85.4557 72.2024L45.6224 75.2794C39.0657 75.7862 33.2257 79.2229 29.5994 84.7075L2.4237 125.812C-0.326587 129.971 -0.763807 135.177 1.25336 139.737C3.27105 144.297 7.41694 147.475 12.3443 148.238L45.904 153.436C45.7855 154.088 45.6665 154.74 45.5576 155.393C44.4404 162.076 46.6547 168.947 51.4816 173.773L98.2275 220.52C102.229 224.522 107.637 226.728 113.178 226.728C114.319 226.728 115.467 226.634 116.609 226.443C117.261 226.334 117.913 226.215 118.565 226.097L123.763 259.657C124.527 264.585 127.705 268.731 132.264 270.748C134.161 271.588 136.168 272.002 138.167 272.002C140.974 272.001 143.761 271.184 146.189 269.578L187.293 242.402C192.779 238.775 196.215 232.935 196.721 226.379L199.798 186.546C200.057 186.332 200.319 186.121 200.578 185.905C221.62 168.353 239.858 146.359 250.614 125.563C271.715 84.7675 272.872 42.1054 271.682 20.3054ZM178.504 229.107L139.185 255.103L134.119 222.396C150.737 217.51 167.175 209.685 182.836 199.202L180.832 225.151C180.707 226.77 179.858 228.212 178.504 229.107ZM109.497 209.25L62.7505 162.504C61.5579 161.311 61.0064 159.635 61.2768 158.02C62.6666 149.71 64.8261 141.799 67.4994 134.347L137.639 204.487C128.689 207.693 120.672 209.605 113.981 210.724C112.364 210.993 110.69 210.443 109.497 209.25ZM46.8502 91.1696L72.7986 89.1652C62.3149 104.826 54.4896 121.265 49.6036 137.882L16.8977 132.817L42.8939 93.4976C43.7896 92.1429 45.232 91.2945 46.8502 91.1696ZM190.37 173.666C177.497 184.404 165 192.171 153.481 197.791L74.2075 118.517C81.5696 103.48 90.5546 90.9593 98.3354 81.6315C114.578 62.1585 134.78 45.3598 153.761 35.5423C191.201 16.1766 230.647 15.1337 250.828 16.2323C253.499 16.3779 255.624 18.5024 255.769 21.174C256.869 41.3552 255.824 80.8007 236.459 118.241C226.642 137.221 209.843 157.423 190.37 173.666Z" fill="white" fill-opacity="0.2"/>
<path d="M186.319 125.504C196.52 125.503 206.726 121.62 214.492 113.853C222.018 106.328 226.162 96.3224 226.162 85.6804C226.162 75.0384 222.017 65.0328 214.492 57.5076C198.957 41.9722 173.68 41.9733 158.147 57.5076C150.621 65.0328 146.477 75.0384 146.477 85.6804C146.477 96.3224 150.621 106.328 158.147 113.853C165.915 121.621 176.115 125.505 186.319 125.504ZM169.415 68.7765C174.075 64.1158 180.197 61.7858 186.318 61.7858C192.44 61.7858 198.562 64.1158 203.222 68.7765C207.737 73.2916 210.224 79.2948 210.224 85.6799C210.224 92.065 207.737 98.0687 203.222 102.584C193.902 111.905 178.735 111.904 169.414 102.584C164.899 98.0687 162.413 92.0655 162.413 85.6804C162.413 79.2953 164.9 73.2916 169.415 68.7765Z" fill="white" fill-opacity="0.2"/>
<path d="M8.12867 224.155C10.1681 224.155 12.2076 223.377 13.7631 221.821L39.7801 195.804C42.8922 192.692 42.8922 187.646 39.7801 184.534C36.6686 181.422 31.6227 181.422 28.5107 184.534L2.49421 210.551C-0.617862 213.663 -0.617862 218.709 2.49421 221.821C4.04972 223.377 6.08919 224.155 8.12867 224.155Z" fill="white" fill-opacity="0.2"/>
<path d="M63.623 208.378C60.5114 205.266 55.4656 205.266 52.3535 208.378L2.33405 258.398C-0.778018 261.51 -0.778018 266.555 2.33405 269.667C3.89009 271.223 5.92904 272.001 7.96851 272.001C10.008 272.001 12.0475 271.223 13.603 269.667L63.6224 219.647C66.735 216.535 66.735 211.49 63.623 208.378Z" fill="white" fill-opacity="0.2"/>
<path d="M76.1987 232.221L50.1817 258.238C47.0696 261.35 47.0696 266.395 50.1817 269.507C51.7377 271.063 53.7772 271.842 55.8162 271.842C57.8551 271.842 59.8951 271.064 61.4506 269.507L87.4676 243.49C90.5797 240.378 90.5797 235.333 87.4676 232.221C84.3561 229.109 79.3102 229.109 76.1987 232.221Z" fill="white" fill-opacity="0.2"/>
</svg>
