<svg width="44" height="45" viewBox="0 0 44 45" fill="none" xmlns="http://www.w3.org/2000/svg">
<circle cx="22" cy="22.8857" r="21" stroke="white" stroke-width="2"/>
<path d="M22 19.2178C19.976 19.2178 18.332 20.8618 18.332 22.8858C18.332 24.9098 19.976 26.5578 22 26.5578C24.024 26.5578 25.672 24.9098 25.672 22.8858C25.672 20.8618 24.024 19.2178 22 19.2178Z" fill="white"/>
<path d="M27.536 12.8857H16.464C14.004 12.8857 12 14.8897 12 17.3497V28.4217C12 30.8857 14.004 32.8857 16.464 32.8857H27.536C30 32.8857 32 30.8857 32 28.4217V17.3497C32 14.8897 30 12.8857 27.536 12.8857ZM22 29.3657C18.428 29.3657 15.52 26.4577 15.52 22.8857C15.52 19.3137 18.428 16.4097 22 16.4097C25.572 16.4097 28.48 19.3137 28.48 22.8857C28.48 26.4577 25.572 29.3657 22 29.3657ZM28.616 17.5857C27.86 17.5857 27.244 16.9737 27.244 16.2177C27.244 15.4617 27.86 14.8457 28.616 14.8457C29.372 14.8457 29.988 15.4617 29.988 16.2177C29.988 16.9737 29.372 17.5857 28.616 17.5857Z" fill="white"/>
</svg>
