<svg width="44" height="45" viewBox="0 0 44 45" fill="none" xmlns="http://www.w3.org/2000/svg">
<circle cx="22" cy="22.8857" r="21" stroke="white" stroke-width="2"/>
<path d="M16 18.8858C17.1046 18.8858 18 17.9903 18 16.8858C18 15.7812 17.1046 14.8857 16 14.8857C14.8954 14.8857 14 15.7812 14 16.8858C14 17.9903 14.8954 18.8858 16 18.8858Z" fill="white"/>
<path d="M18 19.8857H14V30.8857H18V19.8857Z" fill="white"/>
<path d="M27.3599 19.8857C24.36 19.8857 24 21.6658 24 21.6658V19.8857H20V30.8857H24V24.8858C24 24.8858 24 22.8857 25.7 22.8857C26.6999 22.8857 27 23.7757 27 24.8858V30.8857H30.9999V24.8858C30.9999 21.7557 29.64 19.8857 27.3599 19.8857Z" fill="white"/>
</svg>
