<svg width="17" height="14" viewBox="0 0 17 14" fill="none" xmlns="http://www.w3.org/2000/svg">
<path d="M15.4062 0.36969H1.59376C0.714907 0.36969 0 1.10626 0 2.01174V11.864C0 12.7695 0.714907 13.5061 1.59376 13.5061H15.4062C16.2851 13.5061 17 12.7695 17 11.864V2.01174C17 1.10626 16.2851 0.36969 15.4062 0.36969ZM15.4062 1.46438C15.4784 1.46438 15.5471 1.47981 15.6099 1.50676L8.5 7.85564L1.39011 1.50676C1.45288 1.47985 1.52155 1.46438 1.59373 1.46438H15.4062ZM15.4062 12.4113H1.59376C1.30064 12.4113 1.0625 12.166 1.0625 11.864V2.66331L8.15188 8.99362C8.25202 9.08287 8.37601 9.12725 8.5 9.12725C8.62399 9.12725 8.74798 9.0829 8.84812 8.99362L15.9375 2.66331V11.864C15.9375 12.166 15.6994 12.4113 15.4062 12.4113Z" fill="white"/>
</svg>
