<svg width="100" height="99" viewBox="0 0 100 99" fill="none" xmlns="http://www.w3.org/2000/svg">
<path d="M49.5053 99C76.8464 99 99.0107 76.8381 99.0107 49.5C99.0107 22.1619 76.8464 0 49.5053 0C22.1643 0 0 22.1619 0 49.5C0 76.8381 22.1643 99 49.5053 99Z" fill="#0B3D91"/>
<path d="M49.5 2.06152C23.3116 2.06152 2.06445 23.3157 2.06445 49.5012C2.06445 75.6867 23.3116 96.9409 49.5 96.9409C75.6879 96.9409 96.9445 75.6867 96.9445 49.5012C96.9445 23.3157 75.6881 2.06152 49.5 2.06152Z" fill="white"/>
<path d="M49.5011 3.82959C24.2676 3.82959 3.83008 24.2735 3.83008 49.505C3.83008 74.7366 24.2674 95.1804 49.5011 95.1804C74.7346 95.1804 95.1809 74.7363 95.1809 49.505C95.1809 24.2739 74.7346 3.82959 49.5011 3.82959Z" fill="#FD1813"/>
<path d="M60.153 44.5828C71.9994 50.3581 75.6804 65.0723 75.6804 70.5166H71.2438C71.2438 60.5186 67.4808 52.2446 58.8223 44.5828C67.4811 36.9169 71.2438 28.5874 71.2438 18.5967H75.6804C75.6806 24.0344 71.9996 38.807 60.153 44.5828Z" fill="#FFFF00"/>
<path d="M57.9367 44.5828C62.38 48.3616 70.4685 56.2968 70.3587 70.5166H65.9219C65.9219 64.1868 63.6649 53.0251 56.6055 44.5828C63.6649 36.1398 65.9219 24.9255 65.9219 18.5967H70.3585C70.4685 32.8092 62.38 40.8075 57.9367 44.5828Z" fill="#FFFF00"/>
<path d="M55.7177 44.5828C58.7937 48.2435 65.1463 57.4091 65.0341 70.5166H60.5975C60.8278 64.7398 59.6215 51.5734 54.3867 44.5828C59.6213 37.584 60.8278 24.3691 60.5975 18.5967H65.0341C65.1461 31.7006 58.7937 40.9178 55.7177 44.5828Z" fill="#FFFF00"/>
<path d="M53.4987 44.5828C56.2256 47.6914 59.94 57.8511 59.7092 70.5166H55.2734C55.2734 63.517 55.3563 51.021 52.168 44.5828C55.3563 38.1402 55.2734 25.5887 55.2734 18.5967H59.7092C59.9396 31.2544 56.2256 41.4702 53.4987 44.5828Z" fill="#FFFF00"/>
<path d="M49.9512 70.5166H54.3878C54.5012 60.9606 53.9047 50.2475 51.2821 44.5828C53.9047 38.9176 54.5012 28.142 54.3878 18.5967H49.9512V70.5166Z" fill="#FFFF00"/>
<path d="M38.8597 44.5828C27.0135 50.3581 23.332 65.0723 23.332 70.5166H27.7686C27.7686 60.5183 31.5321 52.2446 40.1902 44.5828C31.5318 36.9169 27.7686 28.5874 27.7686 18.5967H23.332C23.332 24.0344 27.0135 38.807 38.8597 44.5828Z" fill="#FFFF00"/>
<path d="M41.0772 44.5828C36.6341 48.3616 28.5453 56.2968 28.6554 70.5166H33.0917C33.0917 64.1868 35.349 53.0251 42.4082 44.5828C35.349 36.1398 33.0917 24.9255 33.0917 18.5967H28.6554C28.5453 32.8092 36.6338 40.8075 41.0772 44.5828Z" fill="#FFFF00"/>
<path d="M43.2959 44.5828C40.2201 48.2435 33.8672 57.4091 33.98 70.5166H38.4161C38.1862 64.7398 39.3925 51.5734 44.6271 44.5828C39.3925 37.584 38.1862 24.3691 38.4161 18.5967H33.98C33.8675 31.7006 40.2201 40.9178 43.2959 44.5828Z" fill="#FFFF00"/>
<path d="M45.514 44.5828C42.7866 47.6914 39.0728 57.8511 39.3032 70.5166H43.7395C43.7395 63.517 43.6566 51.021 46.8452 44.5828C43.6566 38.1402 43.7395 25.5887 43.7395 18.5967H39.3032C39.0731 31.2544 42.7868 41.4702 45.514 44.5828Z" fill="#FFFF00"/>
<path d="M49.0626 70.5166H44.6262C44.513 60.9606 45.1092 50.2475 47.7316 44.5828C45.1092 38.9176 44.513 28.142 44.6262 18.5967H49.0626V70.5166Z" fill="#FFFF00"/>
<path d="M49.2334 72.6555C46.8717 72.6327 45.0813 73.921 44.4504 76.175C44.1705 77.174 44.2498 79.1909 44.6075 80.2404C45.0769 81.6164 46.2842 82.6586 47.8443 83.0269C49.0637 83.315 50.8588 83.1666 51.85 82.6957C52.817 82.2359 53.2149 81.8824 53.7694 80.9872C54.4062 79.9593 54.3831 79.9324 52.7489 79.9324C51.4431 79.9324 51.2991 79.9613 51.1529 80.245C50.794 80.9421 49.2121 81.2025 48.2938 80.7163C47.6995 80.4016 47.3116 79.8779 47.1879 79.2227L47.0936 78.7373H54.3628L54.2908 77.4817C54.1249 74.7233 52.7874 73.1479 50.2761 72.744C49.9313 72.6883 49.5827 72.6587 49.2334 72.6555ZM60.0362 72.6555C58.5899 72.7045 57.2953 73.1344 56.669 73.8317C56.2791 74.2662 55.7696 75.4119 55.7655 75.8622C55.7621 76.1869 55.8096 76.1983 57.1047 76.1983H58.4444L58.6514 75.7177C58.9395 75.0407 59.4012 74.8344 60.4947 74.896C61.2445 74.9384 61.4622 75.0119 61.6817 75.2929C62.3708 76.1767 61.8786 76.5416 59.5733 76.875C56.6037 77.3045 55.613 78.0341 55.5002 79.8716C55.4682 80.3936 55.4854 80.9923 55.5361 81.2018C55.6913 81.8434 56.5945 82.75 57.3253 82.9942C58.1265 83.2621 59.7712 83.1978 60.5081 82.8681C60.7852 82.7442 61.2384 82.4668 61.5151 82.2519L62.0187 81.8599L62.1443 82.3921L62.266 82.9195H63.8348C65.529 82.9195 65.6571 82.8475 65.0802 82.21C64.7686 81.8657 64.7553 81.7292 64.6847 78.1398L64.6081 74.4246L64.1767 73.9532C63.5441 73.2624 62.808 72.9249 61.5153 72.735C61.0257 72.6643 60.5306 72.6377 60.0362 72.6555ZM27.0035 72.6695C26.0052 72.6918 25.0479 72.8703 24.4274 73.2015C23.4527 73.7221 22.6743 74.8821 22.6743 75.82C22.6743 76.1983 22.6746 76.1983 24.0409 76.1983C25.1893 76.1983 25.4075 76.1629 25.4075 75.9648C25.4075 75.8353 25.5988 75.5329 25.8301 75.2929C26.1931 74.9158 26.3595 74.854 27.0437 74.854C27.48 74.854 27.9964 74.9204 28.1948 74.9988C28.879 75.2689 29.0313 76.1629 28.4465 76.4878C28.3075 76.5649 27.421 76.7402 26.4773 76.8753C25.5338 77.0106 24.4531 77.2584 24.0768 77.426C22.515 78.1216 21.824 79.9305 22.517 81.5148C22.8193 82.2059 23.425 82.7127 24.3062 83.0131C25.5275 83.4294 27.664 82.9915 28.5318 82.145C28.8696 81.8157 28.9297 81.8611 29.0354 82.5463C29.0776 82.8203 29.2098 82.8482 30.6268 82.887C32.2635 82.9321 32.4202 82.8564 31.917 82.2801C31.6949 82.0257 31.6627 81.5854 31.6292 78.5367C31.6084 76.635 31.5565 74.9299 31.5167 74.7466C31.3894 74.1569 30.6062 73.3882 29.8131 73.0803C29.0403 72.7801 28.0015 72.6472 27.0035 72.6695ZM38.0713 72.7023C37.2032 72.7052 36.3618 72.7956 35.9225 72.9685C34.4133 73.5616 33.6759 74.6768 33.7826 76.2077C33.8917 77.7746 34.7181 78.3726 37.7163 79.0408C40.024 79.5554 40.2579 79.6621 40.1978 80.2033C40.1273 80.8376 39.3766 81.161 38.1615 81.0805C37.0704 81.0085 36.4792 80.6783 36.3408 80.0677C36.2619 79.72 36.2081 79.7076 34.7899 79.6664C33.3438 79.6245 33.3212 79.6291 33.3244 79.9652C33.3292 80.4751 33.8045 81.4508 34.2729 81.9069C34.8003 82.42 35.802 82.8766 36.7903 83.0596C37.846 83.2553 39.8516 83.1423 40.7553 82.8356C42.3069 82.3092 43.1776 81.1104 43.075 79.6383C42.962 78.0147 42.0341 77.3273 39.128 76.7257C36.6557 76.2138 36.2307 75.9505 36.696 75.2134C37.1298 74.5259 39.0262 74.5417 39.6134 75.2366C39.7914 75.4473 39.9372 75.7158 39.9372 75.8341C39.9372 76.0082 40.2216 76.0489 41.3937 76.0489H42.8503L42.747 75.4937C42.5236 74.257 41.6912 73.3713 40.3688 72.9542C39.8307 72.7847 38.9394 72.6994 38.0713 72.7023ZM73.1675 72.7023C71.8618 72.6952 71.2357 72.9035 70.5151 73.589C70.2149 73.8749 69.9426 74.1072 69.9128 74.1072C69.8834 74.1072 69.8587 73.8385 69.8587 73.5097V72.9123H67.1255V82.9197H70.0027L70.0076 79.8204C70.0102 77.1277 70.0459 76.6432 70.2769 76.1144C70.6048 75.3654 71.2636 75.0036 72.3043 75.0036C72.9357 75.0036 73.1122 75.0722 73.4689 75.4425L73.8872 75.8765V82.92H76.7644V79.0319C76.7644 74.8082 76.7271 74.5514 75.9599 73.7529C75.2756 73.0408 74.3915 72.7088 73.1675 72.7023ZM49.1617 74.9052C50.2431 74.9047 51.3018 75.6425 51.3018 76.6415C51.3018 76.9354 51.222 76.9449 49.2875 76.9449C47.2946 76.9449 47.273 76.9412 47.2735 76.6088C47.2742 76.1833 47.7509 75.3683 48.1142 75.1666C48.4415 74.9849 48.8011 74.9054 49.1617 74.9052ZM61.9469 78.1774V78.9426C61.946 79.8805 61.5951 80.5342 60.9128 80.8706C59.7465 81.445 58.753 81.3005 58.3818 80.4971C58.2288 80.1662 58.2354 80.0086 58.4087 79.5774C58.5857 79.1381 58.7366 79.0183 59.3752 78.8214C59.7913 78.6931 60.2959 78.5869 60.4991 78.5835C60.7023 78.5801 61.1104 78.488 61.4074 78.3781L61.9469 78.1774ZM28.7612 78.2892C28.8378 78.2892 28.8703 78.6505 28.833 79.1153C28.7629 79.9943 28.4317 80.5124 27.6912 80.9123C26.6897 81.4532 25.3646 81.2171 25.1827 80.4642C25.0501 79.915 25.2167 79.3767 25.6008 79.1153C25.8782 78.9266 28.3143 78.2892 28.7612 78.2892Z" fill="#0B3D91"/>
</svg>
