<svg width="325" height="58" viewBox="0 0 325 58" fill="none" xmlns="http://www.w3.org/2000/svg">
<path d="M27.2974 56.9556V46.2637C38.6043 46.2637 47.3261 35.0873 42.9668 23.2606C42.1736 21.0654 40.9089 19.0719 39.2622 17.4209C37.6154 15.77 35.6269 14.5021 33.4374 13.7068C30.8961 12.7488 28.1615 12.4207 25.4665 12.7506C22.7715 13.0804 20.196 14.0583 17.9592 15.6011C15.7224 17.1439 13.8907 19.2058 12.6201 21.6112C11.3494 24.0167 10.6775 26.6943 10.6614 29.4162H0C0 11.5964 17.2847 -2.49685 36.1814 3.33686C40.2423 4.61567 43.9347 6.85952 46.9443 9.8773C49.9538 12.8951 52.1913 16.5974 53.4661 20.6689C59.2817 39.6236 45.2275 56.9556 27.2974 56.9556Z" fill="#0080FF"/>
<path d="M27.4588 46.263H16.7974V35.7337H27.4588M16.7974 54.5258H8.72101V46.263H16.7974V54.5258ZM8.72101 46.263H1.94531V39.4603H8.72101M97.4019 17.9139C94.3335 15.8068 90.2954 14.6621 85.7707 14.6621H75.9201V46.25H85.7739C90.2975 46.25 94.1746 45.1162 97.4051 42.8487C99.1696 41.5617 100.563 39.8295 101.443 37.8279C102.416 35.7207 102.896 33.1291 102.896 30.3748C102.896 27.6205 102.413 25.0288 101.443 23.0843C100.47 20.6682 99.1793 19.0488 97.4019 17.9139ZM81.7357 20.0211H84.8041C88.1968 20.0211 91.103 20.6714 93.3637 22.1282C95.7866 23.5851 96.9316 26.3556 96.9316 30.391C96.9316 34.4265 95.6342 37.3564 93.3637 38.9758C91.2652 40.2765 88.5179 41.0829 84.963 41.0829H81.7357V20.0211ZM109.841 14.1906C109.392 14.1786 108.945 14.259 108.529 14.4268C108.112 14.5945 107.734 14.8462 107.418 15.1662C107.05 15.4513 106.755 15.8206 106.558 16.2431C106.361 16.6656 106.268 17.1292 106.286 17.5953C106.286 18.4974 106.643 19.3625 107.28 20.0004C107.916 20.6383 108.779 20.9966 109.679 20.9966C110.578 20.9966 111.441 20.6383 112.078 20.0004C112.714 19.3625 113.071 18.4974 113.071 17.5953C113.083 17.1452 113.003 16.6975 112.836 16.2798C112.668 15.862 112.417 15.483 112.098 15.1662C111.615 14.5158 110.801 14.1906 109.828 14.1906M106.909 23.9102H112.562V46.1037H106.931V23.9102M132.776 25.8613C131.154 24.4045 129.208 23.4322 127.122 23.4322C125.699 23.4008 124.285 23.6746 122.975 24.2354C121.666 24.7962 120.491 25.6311 119.529 26.684C117.512 28.8266 116.41 31.6755 116.461 34.6216C116.461 37.7011 117.434 40.4521 119.38 42.5592C121.326 44.6664 123.901 45.6387 126.973 45.6387C128.95 45.6698 130.881 45.0431 132.464 43.8567V44.3412C132.464 46.1232 131.981 47.593 131.011 48.5686C130.041 49.5441 128.741 50.0254 126.973 50.0254C124.378 50.0254 122.773 49.0498 120.836 46.2988L116.944 50.0254L117.106 50.1879C117.914 51.3228 119.205 52.4642 120.82 53.5893C122.435 54.7144 124.534 55.2152 126.957 55.2152C130.35 55.2152 132.935 54.2397 134.871 52.1358C136.807 50.0319 137.939 47.4369 137.939 44.0356V23.9102H132.455V25.8613H132.779M131.326 38.9823C130.353 40.1172 129.055 40.6082 127.434 40.6082C125.812 40.6082 124.514 40.1237 123.541 38.9823C122.568 37.8409 122.088 36.3808 122.088 34.6086C122.088 32.8364 122.604 31.3601 123.577 30.2252C124.55 29.0903 125.848 28.5993 127.469 28.5993C129.091 28.5993 130.388 29.0838 131.361 30.2252C132.335 31.3666 132.815 32.8266 132.815 34.5989C132.815 36.3711 132.331 37.8507 131.361 38.9725M143.152 23.907H148.805V46.1004H143.116V23.9102M145.863 14.1906C145.415 14.1795 144.969 14.2598 144.552 14.4268C144.135 14.5938 143.757 14.8439 143.439 15.162C143.122 15.4801 142.873 15.8596 142.706 16.2773C142.54 16.695 142.459 17.1423 142.471 17.592C142.471 18.4941 142.828 19.3593 143.464 19.9971C144.1 20.635 144.963 20.9934 145.863 20.9934C146.763 20.9934 147.626 20.635 148.262 19.9971C148.898 19.3593 149.256 18.4941 149.256 17.592C149.267 17.142 149.187 16.6944 149.02 16.2765C148.853 15.8586 148.604 15.479 148.286 15.1608C147.968 14.8427 147.589 14.5926 147.172 14.4258C146.755 14.2591 146.309 14.179 145.86 14.1906M160.877 17.9139H155.393V23.9102H152.149V28.931H155.393V38.1661C155.393 41.0927 156.041 43.1868 157.17 44.3217C158.299 45.4566 160.414 46.1037 163.148 46.1037C164.067 46.1304 164.986 46.076 165.895 45.9411H166.22V40.9171L164.273 41.0797C162.976 41.0797 162.003 40.9171 161.679 40.4293C161.195 39.9448 161.03 38.9725 161.03 37.5027V29.0936H166.2V24.0696H161.046L160.877 17.9139ZM192.213 14.6621H197.866V46.25H192.22V14.6816M254.248 38.3319C253.423 39.2897 252.502 40.1613 251.501 40.9334C250.621 41.4681 249.611 41.7484 248.582 41.743C247.824 41.7364 247.076 41.5733 246.384 41.2639C245.692 40.9546 245.071 40.5055 244.56 39.9448C243.428 38.6441 242.938 37.1905 242.938 35.246C242.938 33.3014 243.422 31.8446 244.56 30.5471C245.051 29.9582 245.67 29.4909 246.371 29.1818C247.071 28.8727 247.834 28.7301 248.598 28.7652C250.376 28.7652 252.312 29.9 253.927 31.8446L257.641 28.2676C255.218 25.1882 252.15 23.7314 248.433 23.7314C245.364 23.7314 242.779 24.8663 240.519 27.1328C238.403 29.3569 237.239 32.3224 237.275 35.3956C237.275 38.6473 238.407 41.5512 240.519 43.6584C241.523 44.7536 242.748 45.623 244.112 46.2093C245.476 46.7956 246.949 47.0854 248.433 47.0597C252.471 47.0597 255.702 45.2777 257.962 42.039L254.248 38.3124M277.024 27.136C276.174 26.0134 275.06 25.1196 273.781 24.5346C272.315 23.8539 270.712 23.5201 269.097 23.559C266.029 23.559 263.444 24.6939 261.504 26.9604C259.669 29.3163 258.698 32.2343 258.757 35.2232C258.757 38.6246 259.73 41.3788 261.825 43.486C263.921 45.5932 266.509 46.7378 269.902 46.7378C273.615 46.7378 276.687 45.281 279.11 42.2015L279.272 42.039L275.558 38.462C275.234 38.9465 274.751 39.2717 274.261 39.7627C273.802 40.2471 273.251 40.6332 272.639 40.8976C271.799 41.3591 270.849 41.5838 269.892 41.5479C268.485 41.5683 267.113 41.1098 266 40.2472C265.027 39.4375 264.547 38.2962 264.378 36.8459H279.24V34.7387C279.276 33.3021 279.056 31.8706 278.591 30.5114C278.355 29.2554 277.796 28.083 276.969 27.11M264.91 32.3324C265.157 31.352 265.658 30.4545 266.363 29.7309C266.745 29.3495 267.201 29.0516 267.704 28.8562C268.206 28.6609 268.744 28.5723 269.282 28.5961C270.58 28.5961 271.705 28.9212 272.351 29.7309C272.999 30.3813 273.324 31.3568 273.482 32.3324H264.91ZM298.509 25.689C296.888 24.2322 294.471 23.5818 291.565 23.5818C289.788 23.6323 288.036 24.0184 286.401 24.7199C284.948 25.5296 283.482 26.671 282.688 28.2969L286.255 31.6983C287.709 29.2692 289.324 28.4465 291.585 28.4465C292.642 28.4184 293.675 28.7637 294.504 29.422C294.872 29.7072 295.167 30.0764 295.363 30.499C295.56 30.9215 295.654 31.3851 295.636 31.8511V32.986C294.335 32.546 292.97 32.3262 291.598 32.3356C288.851 32.3356 286.59 32.986 284.812 34.2867C283.035 35.5874 282.217 37.5385 282.217 39.7952C282.217 41.9024 282.866 43.5218 284.316 44.816C285.766 46.1102 287.559 46.598 289.645 46.598C291.731 46.598 293.683 45.7883 295.623 44.3217V46.1037H301.114V31.8479C301.114 29.2464 300.306 27.149 298.519 25.6922M288.665 37.6783C289.314 37.1938 290.118 37.028 291.26 37.028C292.694 37.0764 294.111 37.3496 295.461 37.8376V39.9448C294.124 41.1242 292.395 41.7598 290.615 41.7268C289.642 41.7268 288.837 41.5642 288.344 41.0764C287.851 40.5887 287.537 40.1009 287.537 39.4505C287.594 39.0917 287.724 38.7484 287.918 38.4419C288.113 38.1354 288.368 37.8722 288.669 37.6686M322.576 26.0141C320.955 24.2322 318.862 23.4127 316.115 23.4127C313.853 23.4127 312.077 24.0631 310.786 25.3638V24.0631H305.292V46.2565H310.945V33.9518C310.945 32.3259 311.269 30.8723 312.077 29.9033C312.472 29.4302 312.97 29.0533 313.532 28.8009C314.094 28.5486 314.705 28.4274 315.321 28.4465C315.875 28.4194 316.427 28.523 316.934 28.7489C317.441 28.9748 317.888 29.3167 318.24 29.7472C318.998 30.7826 319.396 32.0396 319.372 33.3242V46.2825H324.999V33.3047C324.837 30.2263 324.029 27.7961 322.576 26.0141ZM185.275 25.689C183.653 24.2322 181.237 23.5818 178.331 23.5818C176.552 23.6304 174.797 24.0155 173.161 24.7167C171.708 25.5264 170.241 26.6677 169.447 28.2936L173.015 31.695C174.468 29.2659 176.083 28.4432 178.344 28.4432C179.401 28.4151 180.434 28.7604 181.263 29.4188C181.631 29.7039 181.926 30.0732 182.123 30.4957C182.32 30.9182 182.413 31.3818 182.395 31.8479V32.9827C181.094 32.5428 179.729 32.323 178.357 32.3324C175.611 32.3324 173.349 32.9827 171.571 34.2834C169.794 35.5842 168.977 37.5352 168.977 39.792C168.977 41.8991 169.625 43.5185 171.075 44.8127C172.525 46.107 174.319 46.5947 176.404 46.5947C178.49 46.5947 180.442 45.785 182.382 44.3185V46.1004H187.873V31.8479C187.873 29.2464 186.9 27.149 185.278 25.6922M175.262 37.6783C175.911 37.1938 176.716 37.028 177.857 37.028C179.291 37.0764 180.708 37.3496 182.058 37.8376V39.9448C180.721 41.1242 178.992 41.7598 177.212 41.7268C176.239 41.7268 175.434 41.5642 174.941 41.0764C174.448 40.5887 174.134 40.1009 174.134 39.4505C174.375 38.78 174.762 38.1714 175.266 37.6686M218.08 46.741C214.884 46.7423 211.759 45.7933 209.101 44.0139C206.443 42.2346 204.37 39.7049 203.146 36.7448C201.922 33.7846 201.601 30.5271 202.224 27.3841C202.847 24.2411 204.385 21.3538 206.645 19.0875C208.905 16.8212 211.784 15.2776 214.919 14.652C218.053 14.0263 221.303 14.3468 224.256 15.5728C227.209 16.7988 229.733 18.8752 231.509 21.5395C233.285 24.2038 234.233 27.3362 234.233 30.5406C234.217 34.8314 232.511 38.9421 229.485 41.9767C226.459 45.0114 222.36 46.7239 218.08 46.741ZM218.08 19.852C216.002 19.8488 213.971 20.4634 212.241 21.6181C210.512 22.7729 209.164 24.4158 208.366 26.3391C207.568 28.2624 207.358 30.3797 207.761 32.4231C208.164 34.4665 209.162 36.3441 210.629 37.8186C212.097 39.293 213.968 40.2979 216.005 40.7063C218.042 41.1146 220.155 40.908 222.075 40.1125C223.995 39.317 225.637 37.9685 226.792 36.2375C227.948 34.5064 228.565 32.4707 228.566 30.3878C228.569 29.0045 228.3 27.6342 227.773 26.3556C227.247 25.077 226.474 23.9152 225.498 22.9369C224.523 21.9586 223.364 21.1831 222.089 20.6548C220.814 20.1265 219.447 19.8559 218.067 19.8585" fill="#0080FF"/>
</svg>
