<svg width="38" height="38" viewBox="0 0 38 38" fill="none" xmlns="http://www.w3.org/2000/svg">
<path d="M13.7858 15.5093C14.7375 15.5093 15.509 14.7377 15.509 13.786C15.509 12.8343 14.7375 12.0627 13.7858 12.0627C12.834 12.0627 12.0625 12.8343 12.0625 13.786C12.0625 14.7377 12.834 15.5093 13.7858 15.5093Z" fill="#0B63BD"/>
<path d="M15.509 16.3708H12.0625V25.8487H15.509V16.3708Z" fill="#0B63BD"/>
<path d="M18.9557 0C8.48676 0 0 8.48676 0 18.9557C0 29.4247 8.48676 37.9115 18.9557 37.9115C29.4247 37.9115 37.9115 29.4247 37.9115 18.9557C37.9115 8.48676 29.4247 0 18.9557 0ZM18.9557 36.1882C9.43847 36.1882 1.72327 28.473 1.72327 18.9557C1.72327 9.43847 9.43847 1.72327 18.9557 1.72327C28.473 1.72327 36.1882 9.43847 36.1882 18.9557C36.1882 28.473 28.473 36.1882 18.9557 36.1882Z" fill="#0B63BD"/>
<path d="M23.5759 16.3708C20.991 16.3708 20.6808 17.9046 20.6808 17.9046V16.3708H17.2344V25.8487H20.6808V20.679C20.6808 20.679 20.6808 18.9557 22.1456 18.9557C23.0072 18.9557 23.2657 19.7225 23.2657 20.679V25.8487H26.7122V20.679C26.7122 17.9821 25.5404 16.3708 23.5759 16.3708Z" fill="#0B63BD"/>
</svg>
