<svg width="39" height="38" viewBox="0 0 39 38" fill="none" xmlns="http://www.w3.org/2000/svg">
<path d="M28.8718 12.3212C28.1762 12.7334 27.4158 13.0247 26.6229 13.1828C25.9491 12.4762 25.0145 12.0773 24.0381 12.0799C22.1146 12.0655 20.5384 13.6031 20.5054 15.5264C20.5062 15.7934 20.538 16.0595 20.6002 16.3191C17.7673 16.1854 15.1216 14.8657 13.3108 12.6831C13.0011 13.2051 12.8346 13.7995 12.8283 14.4064C12.8284 15.5765 13.4222 16.6666 14.4051 17.3014C13.8438 17.2831 13.2947 17.1326 12.8025 16.862C12.8025 16.862 12.8025 16.862 12.8025 16.9051C12.7969 18.5857 13.9871 20.0328 15.6373 20.3515C15.1171 20.4902 14.5724 20.5108 14.0433 20.4119C14.519 21.8355 15.8425 22.803 17.3433 22.8244C16.0938 23.7961 14.5576 24.3263 12.9749 24.3323C12.6869 24.332 12.3992 24.3147 12.1133 24.2806C13.7347 25.3063 15.6142 25.8502 17.5329 25.8488C23.0044 25.9487 27.521 21.5942 27.6209 16.1227C27.622 16.0647 27.6225 16.0067 27.6225 15.9487C27.6225 15.7993 27.6225 15.65 27.6225 15.5006C28.2978 15.0057 28.8811 14.3962 29.3458 13.6998C28.699 13.9831 28.0137 14.1688 27.3124 14.2513C28.0499 13.8195 28.6045 13.1332 28.8718 12.3212Z" fill="#03A9F4"/>
<path d="M19.8659 0C9.39692 0 0.910156 8.48676 0.910156 18.9557C0.910156 29.4247 9.39692 37.9115 19.8659 37.9115C30.3348 37.9115 38.8216 29.4247 38.8216 18.9557C38.8216 8.48676 30.3348 0 19.8659 0ZM19.8659 36.1882C10.3486 36.1882 2.63342 28.473 2.63342 18.9557C2.63342 9.43847 10.3486 1.72327 19.8659 1.72327C29.3831 1.72327 37.0983 9.43847 37.0983 18.9557C37.0983 28.473 29.3831 36.1882 19.8659 36.1882Z" fill="#03A9F4"/>
</svg>
