<svg width="308" height="308" viewBox="0 0 308 308" fill="none" xmlns="http://www.w3.org/2000/svg">
<path d="M130.973 70.1623C138.435 68.117 146.183 67.0799 154 67.0799C201.928 67.0799 240.92 106.072 240.92 154C240.92 201.928 201.928 240.92 154 240.92C106.072 240.92 67.0799 201.928 67.0799 154C67.0799 146.183 68.117 138.435 70.1623 130.973C71.5675 125.846 68.5507 120.552 63.4242 119.146C58.3007 117.742 53.0027 120.758 51.5975 125.884C49.098 135.005 47.8299 144.464 47.8299 154C47.8299 212.542 95.458 260.17 154 260.17C212.542 260.17 260.17 212.542 260.17 154C260.17 95.458 212.542 47.8299 154 47.8299C144.464 47.8299 135.005 49.0974 125.884 51.5975C121.609 52.7693 118.801 56.647 118.802 60.876C118.802 61.7176 118.913 62.573 119.146 63.4242C120.551 68.5507 125.845 71.5694 130.973 70.1623ZM18.277 103.734C23.374 105.243 26.2832 110.597 24.7739 115.695C21.1085 128.075 19.2503 140.963 19.2503 154C19.2503 228.301 79.6989 288.75 154 288.75C228.301 288.75 288.75 228.301 288.75 154C288.75 79.6989 228.301 19.2503 154 19.2503C140.962 19.2503 128.075 21.1085 115.697 24.7733C110.599 26.2832 105.245 23.3728 103.735 18.2764C103.466 17.365 103.337 16.4464 103.337 15.5423C103.336 11.3885 106.046 7.55475 110.232 6.31493C124.386 2.12445 139.111 0.000337153 154 0.000337153C195.135 0.000337153 233.808 16.0193 262.895 45.1054C291.981 74.1928 308 112.865 308 154C308 195.135 291.981 233.808 262.895 262.895C233.809 291.982 195.135 308 154 308C112.865 308 74.1928 291.981 45.1054 262.895C16.0193 233.808 0.000335693 195.135 0.000335693 154C0.000335693 139.112 2.12504 124.386 6.31552 110.231C7.82424 105.134 13.1805 102.227 18.277 103.734ZM154 115.5C152.585 115.5 151.155 115.578 149.751 115.732C144.465 116.314 139.713 112.498 139.134 107.215C138.554 101.931 142.368 97.1772 147.652 96.5979C149.751 96.3669 151.886 96.2502 154 96.2502C185.844 96.2502 211.75 122.156 211.75 154C211.75 185.844 185.844 211.75 154 211.75C122.156 211.75 96.2502 185.844 96.2502 154C96.2502 148.684 100.559 144.375 105.875 144.375C111.191 144.375 115.5 148.684 115.5 154C115.5 175.229 132.771 192.5 154 192.5C175.229 192.5 192.5 175.229 192.5 154C192.5 132.771 175.229 115.5 154 115.5ZM104.856 91.2458L100.062 43.1528C99.8416 40.9402 98.8622 38.8733 97.2903 37.3014L62.807 2.81926C60.1505 0.16336 56.1934 -0.704693 52.6689 0.595282C49.1455 1.89526 46.6996 5.12685 46.4054 8.87157L43.6713 43.6719L8.87157 46.4054C5.12685 46.6996 1.89526 49.1455 0.595289 52.6689C-0.704687 56.1928 0.163362 60.1511 2.81926 62.807L37.302 97.2891C38.8733 98.861 40.9408 99.8404 43.1528 100.061L91.2446 104.857L147.194 160.806C149.074 162.686 151.537 163.625 154 163.625C156.464 163.625 158.926 162.686 160.806 160.806C164.565 157.047 164.565 150.953 160.806 147.194L104.856 91.2458ZM84.8759 84.8771L48.4838 81.2473L31.1979 63.9614L53.3763 62.2193C58.0974 61.8481 61.8469 58.098 62.2181 53.3775L63.9602 31.1973L81.2473 48.4838L84.8759 84.8771Z" fill="white" fill-opacity="0.2"/>
</svg>
