<svg width="94" height="96" viewBox="0 0 94 96" fill="none" xmlns="http://www.w3.org/2000/svg">
<path fill-rule="evenodd" clip-rule="evenodd" d="M38.1293 56.891L76.0057 93.8487C78.0894 95.8814 81.3839 95.9765 83.5814 94.0678L83.5864 94.0627C85.7839 92.1539 86.149 88.8781 84.4287 86.5312C84.4287 86.5312 52.9783 43.6519 52.9732 43.6468L41.0519 27.3918C41.5597 26.057 41.614 24.5609 41.1487 23.148L36.19 8.06639C35.2475 5.19815 32.9311 2.99221 30.0204 2.18897C27.1097 1.38742 23.9902 2.09557 21.7113 4.07565L3.10416 20.2407C0.823502 22.2208 -0.312584 25.2096 0.0746002 28.2035C0.461792 31.1991 2.32295 33.8007 5.02986 35.1355L19.271 42.1541C20.6176 42.8181 22.1222 42.9693 23.5249 42.6415L37.7591 56.531C37.7896 56.5802 37.8236 56.6278 37.8644 56.6736C37.9425 56.7637 38.0325 56.8367 38.1293 56.891ZM51.9899 45.7509L82.7849 87.7369C83.8785 89.2296 83.6459 91.3116 82.25 92.5241L82.2449 92.5292C80.8473 93.7417 78.7534 93.6823 77.4288 92.3899L40.1621 56.0266L51.9899 45.7509ZM39.2806 29.9255L39.9531 29.3413L47.8514 40.1078L35.1524 51.1392L25.595 41.8145L26.2437 41.2507L39.2806 29.9255ZM49.0606 41.7568L50.7808 44.102L38.6982 54.5985L36.6162 52.5674L49.0606 41.7568ZM24.9072 39.7121C23.5962 40.8516 21.7299 41.0928 20.1709 40.3252L5.93162 33.3066C3.83605 32.2741 2.39603 30.26 2.09545 27.942C1.79657 25.6257 2.6762 23.311 4.44062 21.7793L23.0477 5.61421C24.8121 4.08075 27.2269 3.53393 29.4787 4.15377C31.7322 4.7753 33.5238 6.48199 34.2541 8.70322L39.2128 23.7831C39.7562 25.4338 39.2552 27.2474 37.9442 28.3869L36.404 29.7251L33.1553 21.1985C32.9549 20.6721 32.3674 20.4088 31.8409 20.6092C31.3162 20.8079 31.0513 21.3972 31.2517 21.9236L34.7652 31.1482L32.1941 33.3813L24.4436 24.459C24.0751 24.0345 23.4298 23.9886 23.0052 24.3571C22.5807 24.7256 22.5365 25.3709 22.905 25.7955L30.6556 34.7178L28.0862 36.9509L19.4424 32.1824C18.9499 31.9107 18.3302 32.089 18.0585 32.5814C17.7868 33.0739 17.965 33.6938 18.4575 33.9655L26.4474 38.374L24.9072 39.7121ZM80.0882 6.4684C77.3439 6.4684 75.1634 4.00602 75.1634 1.01891C75.1634 0.45681 74.7066 0 74.1445 0C73.5807 0 73.1256 0.45681 73.1256 1.01891C73.1256 4.00602 70.9451 6.4684 68.2008 6.4684C67.6387 6.4684 67.182 6.92521 67.182 7.48731C67.182 8.05111 67.6387 8.50622 68.2008 8.50622C70.9451 8.50622 73.1256 10.9703 73.1256 13.9574C73.1256 14.5195 73.5807 14.9763 74.1445 14.9763C74.7066 14.9763 75.1634 14.5195 75.1634 13.9574C75.1634 10.9703 77.3439 8.50622 80.0882 8.50622C80.6503 8.50622 81.107 8.05111 81.107 7.48731C81.107 6.92521 80.6503 6.4684 80.0882 6.4684ZM74.1445 10.055C73.5417 8.997 72.701 8.11394 71.7058 7.48731C72.701 6.86237 73.5417 5.97931 74.1445 4.92134C74.7474 5.97931 75.5862 6.86237 76.5831 7.48731C75.5862 8.11394 74.7474 8.997 74.1445 10.055ZM74.5368 31.8614V31.8648C74.5368 32.4286 74.9919 32.8837 75.5557 32.8837C79.7842 32.8837 83.1686 36.6571 83.1686 41.2609C83.1686 41.8247 83.6238 42.2798 84.1876 42.2798H84.191C84.7531 42.2798 85.2099 41.8247 85.2099 41.2609C85.2099 36.6571 88.5927 32.8837 92.8229 32.8837C93.385 32.8837 93.8418 32.4286 93.8418 31.8648V31.8614C93.8418 31.2993 93.385 30.8425 92.8229 30.8425C88.5927 30.8425 85.2099 27.0691 85.2099 22.4653C85.2099 21.9032 84.7531 21.4464 84.191 21.4464H84.1876C83.6238 21.4464 83.1686 21.9032 83.1686 22.4653C83.1686 27.0691 79.7842 30.8425 75.5557 30.8425C74.9919 30.8425 74.5368 31.2993 74.5368 31.8614ZM88.6606 31.8631C86.7297 32.8616 85.1504 34.5344 84.1893 36.6011C83.2281 34.5344 81.6488 32.8616 79.7163 31.8631C81.6488 30.8646 83.2281 29.1936 84.1893 27.1252C85.1504 29.1936 86.7297 30.8646 88.6606 31.8631ZM4.35915 71.9675V71.9709C4.35915 72.533 4.81593 72.9898 5.37802 72.9898C9.60822 72.9898 12.9927 76.7632 12.9927 81.367C12.9927 81.9291 13.4478 82.3859 14.0116 82.3859H14.0134C14.5771 82.3859 15.0322 81.9291 15.0322 81.367C15.0322 76.7632 18.4167 72.9898 22.6469 72.9898C23.209 72.9898 23.6659 72.533 23.6659 71.9709V71.9675C23.6659 71.4037 23.209 70.9486 22.6469 70.9486C18.4167 70.9486 15.0322 67.1752 15.0322 62.5715C15.0322 62.0094 14.5771 61.5525 14.0134 61.5525H14.0116C13.4478 61.5525 12.9927 62.0094 12.9927 62.5715C12.9927 67.1752 9.60822 70.9486 5.37802 70.9486C4.81593 70.9486 4.35915 71.4037 4.35915 71.9675ZM18.4847 71.9692C16.5538 72.9678 14.9728 74.6388 14.0134 76.7072C13.0522 74.6388 11.4711 72.9678 9.54027 71.9692C11.4711 70.9707 13.0522 69.2997 14.0134 67.2313C14.9728 69.2997 16.5538 70.9707 18.4847 71.9692Z" fill="white"/>
</svg>
