<svg width="55" height="55" viewBox="0 0 55 55" fill="none" xmlns="http://www.w3.org/2000/svg">
<path d="M50.0821 11.7921L52.1637 10.7426C52.6518 10.4961 53.0426 10.0923 53.2729 9.59632C53.5033 9.10036 53.5597 8.54123 53.433 8.00927C53.3063 7.47731 53.004 7.00358 52.5749 6.66463C52.1458 6.32568 51.615 6.1413 51.0681 6.14128L49.2814 6.22391C48.5493 5.84836 47.7487 5.62505 46.928 5.56744C46.1073 5.50984 45.2833 5.61914 44.506 5.88874C39.616 2.04077 33.5655 -0.0350468 27.3431 0.000447741C21.1208 0.0359423 15.0944 2.18065 10.2486 6.08416C5.40279 9.98767 2.02409 15.4192 0.664494 21.4913C-0.695097 27.5634 0.0448107 33.9172 2.76333 39.5144C5.48184 45.1116 10.0182 49.6214 15.6314 52.3069C21.2445 54.9925 27.6024 55.695 33.6664 54.2997C39.7305 52.9044 45.142 49.4938 49.017 44.6251C52.8919 39.7565 55.0011 33.7176 55 27.4951C55.0159 21.8794 53.2985 16.3956 50.0821 11.7921ZM48.6825 7.74885C48.8179 7.82797 48.9734 7.86588 49.13 7.85794L50.9869 7.76509H51.0658C51.2179 7.76403 51.3671 7.80646 51.4959 7.88739C51.6247 7.96832 51.7277 8.08437 51.7928 8.22188C51.8828 8.41224 51.8951 8.63017 51.8272 8.82948C51.7592 9.02879 51.6163 9.19381 51.4288 9.28957L43.0266 13.5269L43.1737 11.8033C43.1863 11.6562 43.1586 11.5084 43.0935 11.3759C43.0284 11.2434 42.9284 11.1311 42.8043 11.0512C42.6802 10.9713 42.5366 10.9267 42.389 10.9223C42.2414 10.9179 42.0954 10.9538 41.9668 11.0262L35.51 14.6712C35.3518 14.7603 35.228 14.8998 35.1584 15.0675C35.0887 15.2352 35.0772 15.4214 35.1256 15.5964L35.5936 17.2824L24.6846 22.7856C24.3327 22.9638 23.9355 23.0322 23.5443 22.982C23.1531 22.9317 22.7861 22.7652 22.4907 22.5039L19.0411 19.454C19.3168 19.3009 19.6254 19.2167 19.9406 19.2086C20.2559 19.2006 20.5684 19.2688 20.8516 19.4076L22.7497 20.3174C22.8712 20.3758 23.0053 20.403 23.14 20.3965C23.2746 20.3901 23.4055 20.3501 23.5208 20.2803L44.2247 7.78923C44.8985 7.391 45.6655 7.17757 46.4482 7.17048C47.2309 7.16339 48.0016 7.36289 48.6825 7.74885ZM36.8613 15.7742L41.4259 13.1996L40.5978 22.8827L39.0195 23.5497L36.8613 15.7742ZM34.097 12.0006L30.3651 8.73391L31.6524 7.59937L37.6296 9.86891L34.097 12.0006ZM17.9386 3.45209C17.7331 4.50658 17.6696 5.58382 17.7497 6.65516C17.7627 6.81764 17.7789 6.98011 17.7961 7.14723C17.8801 7.99488 17.959 8.79565 17.6197 9.35688C17.2804 9.91811 16.5269 10.2287 15.735 10.5513L15.5103 10.6441C13.3443 11.5424 11.9011 12.6867 11.1003 14.1471C10.6427 15.0737 10.3248 16.063 10.157 17.0828C10.0558 17.5595 9.96019 18.0112 9.83206 18.4471C9.67887 18.9712 9.07679 20.6985 7.75053 20.9241C6.79054 21.0862 5.89786 20.4172 4.86452 19.6401C4.34372 19.2325 3.793 18.8645 3.21703 18.5395C4.48212 15.1366 6.44555 12.0361 8.981 9.43768C11.5164 6.83923 14.5678 4.80031 17.9386 3.45209ZM1.61549 27.4951C1.61522 24.9926 1.97926 22.5034 2.69618 20.1057C3.0889 20.343 3.48163 20.6326 3.88781 20.9381C4.91419 21.711 6.06172 22.5744 7.45158 22.5744C7.64303 22.5752 7.8342 22.5597 8.02302 22.528C9.54564 22.2694 10.8051 20.9149 11.3918 18.9071C11.5362 18.4114 11.6434 17.91 11.746 17.4254C11.8837 16.5623 12.1448 15.7236 12.5212 14.9349C13.1387 13.8124 14.3196 12.9021 16.13 12.1496L16.3468 12.0605C17.3022 11.6714 18.3847 11.23 19.0082 10.2036C19.6316 9.17723 19.5137 8.01716 19.412 6.99218C19.3972 6.8362 19.3814 6.68116 19.3693 6.53075C19.274 5.27337 19.4067 4.00911 19.7611 2.79894C23.6513 1.58182 27.7739 1.30062 31.7933 1.97823C35.8128 2.65583 39.6153 4.27309 42.8915 6.69833L39.3969 8.80679L31.7712 5.90638C31.633 5.85392 31.4832 5.84015 31.3377 5.86658C31.1923 5.893 31.0568 5.9586 30.9459 6.05633L28.597 8.12672C28.5101 8.20296 28.4406 8.29685 28.3929 8.40211C28.3452 8.50738 28.3206 8.6216 28.3206 8.73716C28.3206 8.85271 28.3452 8.96693 28.3929 9.0722C28.4406 9.17746 28.5101 9.27135 28.597 9.3476L32.6356 12.8812L23.0552 18.663L21.5558 17.9444C20.9574 17.6518 20.2891 17.5326 19.6264 17.6002C18.9638 17.6678 18.3333 17.9195 17.8063 18.3269L17.2534 18.7488C17.1581 18.8216 17.0801 18.9145 17.025 19.021C16.9698 19.1274 16.9389 19.2448 16.9345 19.3646C16.93 19.4844 16.9522 19.6037 16.9993 19.7139C17.0464 19.8242 17.1173 19.9226 17.207 20.0022L21.4142 23.7229C21.9527 24.1992 22.6219 24.5029 23.335 24.5946C24.0481 24.6863 24.7723 24.5618 25.4138 24.2372L36.0369 18.8793L37.6988 24.8751C37.7297 24.9864 37.7841 25.0898 37.8581 25.1784C37.9322 25.2671 38.0243 25.3389 38.1283 25.3892C38.2323 25.4394 38.3459 25.4669 38.4613 25.4699C38.5768 25.4728 38.6916 25.4511 38.798 25.4061L41.6813 24.189C41.8175 24.1313 41.9354 24.0377 42.0222 23.918C42.1091 23.7983 42.1617 23.6572 42.1743 23.5098L42.8655 15.4325L48.6143 12.5335C50.9734 15.8458 52.5097 19.6724 53.0963 23.6964C50.9583 23.8381 48.8528 24.2929 46.847 25.0464C46.1507 25.3207 45.4669 25.6461 44.8045 25.9613C43.0823 26.7793 41.4473 27.548 39.7469 27.4556C38.6424 27.3272 37.5647 27.0273 36.5526 26.5667C36.0012 26.3517 35.4316 26.1298 34.8448 25.9493C32.4137 25.2065 30.2356 25.5946 29.0185 26.99C27.8802 28.294 27.8607 30.1583 27.8482 31.3921L27.7785 37.8637C27.7498 40.7317 27.5529 43.8465 25.5763 44.5052C19.7737 46.4392 18.0264 48.6288 17.6411 51.422C15.9126 50.7057 14.267 49.8037 12.7334 48.7319C12.509 48.3497 12.3049 47.956 12.122 47.5523C12.0337 47.3558 11.8709 47.2023 11.6695 47.1257C11.4681 47.0491 11.2445 47.0556 11.0478 47.1438C10.9724 47.1791 10.903 47.2261 10.8422 47.2831C7.95264 44.8586 5.6292 41.8306 4.03518 38.4119C2.44115 34.9933 1.61524 31.2671 1.61549 27.4951ZM27.4954 53.375C24.6733 53.3751 21.8703 52.9115 19.1985 52.0027C19.3057 50.2072 19.9756 48.0829 26.0902 46.045C29.3313 44.9653 29.3768 40.5293 29.4033 37.8791L29.4729 31.4075C29.4864 30.091 29.5551 28.8441 30.2431 28.0568C31.1659 26.9984 32.9791 27.0754 34.3685 27.4997C34.8968 27.6627 35.4149 27.8641 35.9626 28.0781C37.1321 28.6047 38.3781 28.9415 39.6536 29.0757C41.7783 29.1955 43.6709 28.2968 45.5027 27.4268C46.1707 27.1093 46.8025 26.8094 47.4459 26.5555C49.3207 25.8563 51.2882 25.4363 53.2852 25.3091C53.3452 26.0323 53.3762 26.7607 53.378 27.4942C53.3705 34.3562 50.6412 40.935 45.7888 45.787C40.9364 50.639 34.3574 53.368 27.4954 53.375Z" fill="white"/>
<path d="M49.6143 20.8482C49.6829 21.0466 49.8257 21.2108 50.0127 21.3064C50.1996 21.4019 50.4163 21.4214 50.6174 21.3607C50.8184 21.3001 50.9881 21.164 51.0911 20.9809C51.194 20.7979 51.222 20.5821 51.1694 20.3788C50.8915 19.4579 50.5601 18.5539 50.1769 17.6716C50.0911 17.4739 49.9303 17.3184 49.7298 17.2393C49.5294 17.1602 49.3057 17.164 49.1081 17.2498C48.9104 17.3356 48.7549 17.4965 48.6758 17.6969C48.5968 17.8973 48.6005 18.121 48.6863 18.3187C49.045 19.1429 49.3548 19.9875 49.6143 20.8482Z" fill="white"/>
<path d="M16.5893 26.6095C16.7015 26.6097 16.8125 26.5865 16.9153 26.5415C17.0181 26.4966 17.1103 26.4307 17.1863 26.3482C17.534 25.9693 17.9007 25.6085 18.2851 25.267C18.3651 25.1963 18.4303 25.1106 18.4771 25.0148C18.524 24.9189 18.5514 24.8147 18.558 24.7082C18.5646 24.6017 18.5501 24.495 18.5154 24.3941C18.4808 24.2932 18.4266 24.2001 18.3559 24.1202C18.2852 24.0402 18.1995 23.975 18.1037 23.9281C18.0078 23.8813 17.9036 23.8538 17.7971 23.8472C17.6906 23.8407 17.5839 23.8551 17.483 23.8898C17.3821 23.9245 17.289 23.9787 17.2091 24.0494C16.7836 24.4277 16.3775 24.8272 15.9924 25.2466C15.8854 25.3626 15.8146 25.5073 15.7885 25.663C15.7624 25.8186 15.7823 25.9785 15.8456 26.1231C15.9089 26.2676 16.013 26.3906 16.1451 26.477C16.2771 26.5634 16.4315 26.6094 16.5893 26.6095Z" fill="white"/>
<path d="M10.3615 38.6446C10.4142 38.6555 10.4678 38.6609 10.5216 38.6609C10.7093 38.6608 10.8911 38.5956 11.0362 38.4765C11.1813 38.3575 11.2806 38.1918 11.3173 38.0077C11.5362 36.9302 11.8309 35.8695 12.1993 34.8335C12.2673 34.6312 12.253 34.4104 12.1595 34.2186C12.066 34.0269 11.9009 33.8796 11.6997 33.8085C11.4985 33.7375 11.2775 33.7485 11.0843 33.8391C10.8912 33.9296 10.7414 34.0926 10.6674 34.2926C10.2741 35.4011 9.95985 36.536 9.72688 37.6888C9.68447 37.8997 9.72747 38.1188 9.84644 38.298C9.96542 38.4772 10.1506 38.6019 10.3615 38.6446Z" fill="white"/>
<path d="M12.405 32.1527C12.5976 32.2493 12.8206 32.2655 13.0251 32.1977C13.2296 32.1299 13.3988 31.9836 13.4955 31.7911C13.9901 30.8047 14.5466 29.8505 15.1615 28.9343C15.227 28.8461 15.2739 28.7456 15.2994 28.6388C15.3249 28.5319 15.3285 28.4211 15.3099 28.3128C15.2914 28.2046 15.2511 28.1012 15.1914 28.009C15.1318 27.9168 15.0541 27.8376 14.963 27.7763C14.8719 27.7149 14.7693 27.6727 14.6615 27.6521C14.5536 27.6315 14.4427 27.633 14.3354 27.6565C14.2281 27.68 14.1267 27.725 14.0373 27.7888C13.9479 27.8526 13.8724 27.9339 13.8153 28.0277C13.1621 29.0008 12.5712 30.0144 12.0462 31.0622C11.9981 31.1574 11.9692 31.2611 11.9613 31.3674C11.9533 31.4737 11.9663 31.5806 11.9996 31.6818C12.033 31.7831 12.0859 31.8768 12.1555 31.9576C12.225 32.0384 12.3098 32.1047 12.405 32.1527Z" fill="white"/>
<path d="M11.1752 44.4854C11.0129 43.5775 10.9323 42.6568 10.9343 41.7345C10.9343 41.5752 10.9371 41.4155 10.9413 41.2563C10.9474 41.0409 10.8677 40.8318 10.7197 40.6751C10.5717 40.5184 10.3676 40.4269 10.1521 40.4207C9.93665 40.4146 9.72757 40.4943 9.57087 40.6423C9.41417 40.7903 9.32268 40.9944 9.31652 41.2099C9.31141 41.3826 9.30909 41.5557 9.30863 41.7303C9.30658 42.7508 9.39591 43.7695 9.57555 44.7741C9.60964 44.9611 9.70819 45.1303 9.85406 45.2522C9.99994 45.374 10.1839 45.4409 10.374 45.4412C10.4231 45.4413 10.472 45.4368 10.5202 45.4277C10.7319 45.3894 10.9198 45.2687 11.0426 45.092C11.1654 44.9154 11.2131 44.6972 11.1752 44.4854Z" fill="white"/>
</svg>
