<svg width="70" height="55" viewBox="0 0 70 55" fill="none" xmlns="http://www.w3.org/2000/svg">
<path d="M69.9997 44.5869C69.9973 43.8139 69.7557 43.0606 69.3081 42.4304C68.8605 41.8003 68.2288 41.3241 67.4997 41.0672V19.8444L68.6301 19.3386C69.0437 19.1229 69.3901 18.7978 69.6316 18.3987C69.8731 17.9996 70.0004 17.5419 69.9997 17.0754C69.9973 16.5965 69.8614 16.1278 69.6071 15.7219C69.3529 15.316 68.9904 14.9892 68.5605 14.7781L36.1888 0.298152C35.8352 0.108374 35.4413 0.00622214 35.04 0.000275414C34.6388 -0.00567131 34.2419 0.0847612 33.8829 0.263977L1.4392 14.7781C1.41544 14.788 1.39222 14.7992 1.36963 14.8116C0.950673 15.0309 0.600822 15.3622 0.359051 15.7686C0.117281 16.175 -0.00691593 16.6405 0.000297238 17.1133C0.00751041 17.5861 0.14585 18.0477 0.399905 18.4465C0.65396 18.8453 1.01375 19.1658 1.4392 19.3722L9.99996 23.2014V46.255C10.0001 46.5607 10.1121 46.8557 10.3149 47.0844C10.6018 47.4079 17.539 55.0049 34.9999 55.0049C52.4607 55.0049 59.3979 47.4079 59.6847 47.0844C59.8875 46.8557 59.9996 46.5607 59.9997 46.255V23.2001L64.9997 20.9629V41.0672C64.3053 41.3091 63.6979 41.751 63.2542 42.3374C62.8105 42.9238 62.5503 43.6284 62.5063 44.3625C62.4624 45.0965 62.6367 45.8271 63.0073 46.4623C63.3779 47.0974 63.9282 47.6087 64.5888 47.9316L62.5815 53.191C62.523 53.3445 62.4953 53.5079 62.4999 53.672C62.5046 53.8361 62.5415 53.9977 62.6086 54.1476C62.6757 54.2975 62.7717 54.4326 62.891 54.5454C63.0104 54.6581 63.1508 54.7463 63.3042 54.8048C63.4576 54.8633 63.621 54.891 63.7851 54.8864C63.9493 54.8817 64.1109 54.8448 64.2607 54.7777C64.4106 54.7106 64.5457 54.6146 64.6585 54.4953C64.7713 54.3759 64.8594 54.2356 64.9179 54.0822L66.2497 50.5922L67.5815 54.0822C67.64 54.2356 67.7281 54.3759 67.8409 54.4953C67.9537 54.6146 68.0889 54.7106 68.2387 54.7777C68.3886 54.8448 68.5502 54.8817 68.7143 54.8864C68.8784 54.891 69.0418 54.8633 69.1953 54.8048C69.3487 54.7463 69.4891 54.6581 69.6084 54.5454C69.7277 54.4326 69.8237 54.2975 69.8908 54.1476C69.9579 53.9977 69.9948 53.8361 69.9995 53.672C70.0042 53.5079 69.9764 53.3445 69.9179 53.191L67.9106 47.9317C68.5358 47.624 69.0625 47.1478 69.4316 46.5569C69.8007 45.9659 69.9975 45.2836 69.9997 44.5869ZM2.51342 17.0358L34.9034 2.54547L34.9303 2.54297C34.9854 2.54855 35.041 2.54938 35.0963 2.54547L67.54 17.0907L35.0963 31.6048C35.078 31.6115 34.984 31.5999 34.934 31.6005C34.9236 31.5998 34.9132 31.6012 34.9034 31.6048L2.5 17.0754C2.49897 17.0682 2.49965 17.0609 2.50199 17.054C2.50432 17.0471 2.50823 17.0409 2.51342 17.0358ZM57.4998 45.7331C56.0166 47.1015 49.2552 52.5049 34.9999 52.5049C20.7372 52.5049 13.9758 47.0954 12.5 45.7337V24.3197L33.8109 33.8521C34.1833 34.0474 34.5976 34.1496 35.0182 34.15C35.4004 34.153 35.7776 34.0625 36.1168 33.8863L57.4998 24.3188V45.7331ZM66.2361 43.3396L66.2497 43.3424L66.2633 43.3396C66.5935 43.3426 66.9091 43.4762 67.141 43.7113C67.3728 43.9464 67.5022 44.2638 67.5006 44.594C67.499 44.9242 67.3667 45.2403 67.1326 45.4732C66.8984 45.7061 66.5816 45.8367 66.2514 45.8365L66.2497 45.8363L66.248 45.8365C65.9178 45.8367 65.601 45.7061 65.3669 45.4732C65.1327 45.2403 65.0004 44.9242 64.9988 44.594C64.9973 44.2638 65.1266 43.9464 65.3585 43.7113C65.5904 43.4762 65.9059 43.3426 66.2361 43.3396Z" fill="white"/>
</svg>
