<svg width="124" height="124" viewBox="0 0 124 124" fill="none" xmlns="http://www.w3.org/2000/svg">
<path d="M92.9691 41.6146C91.0604 39.602 87.8783 39.5134 85.8626 41.4269L53.7701 71.8624L38.4629 56.1461C36.5242 54.157 33.3455 54.1134 31.3547 56.0524C29.3656 57.9894 29.3237 61.1715 31.2607 63.1606L50.0283 82.4292C51.0118 83.4396 52.3189 83.949 53.6294 83.949C54.8728 83.949 56.1162 83.4898 57.0898 82.5699L92.7817 48.7213C94.7957 46.811 94.8809 43.6289 92.9691 41.6146Z" fill="#00BA00"/>
<path d="M62 0C27.8128 0 0 27.8128 0 62C0 96.1872 27.8128 124 62 124C96.1872 124 124 96.1872 124 62C124 27.8128 96.1872 0 62 0ZM62 113.946C33.3577 113.946 10.0539 90.6442 10.0539 62C10.0539 33.3577 33.3575 10.0539 62 10.0539C90.644 10.0539 113.946 33.3575 113.946 62C113.946 90.644 90.644 113.946 62 113.946Z" fill="#00BA00"/>
</svg>
