<svg width="38" height="38" viewBox="0 0 38 38" fill="none" xmlns="http://www.w3.org/2000/svg">
<path fill-rule="evenodd" clip-rule="evenodd" d="M19.0002 2.38672C28.1804 2.38672 35.6254 9.83168 35.6254 19.0119C35.6254 28.1921 28.1804 35.6371 19.0002 35.6371C9.81996 35.6371 2.375 28.1921 2.375 19.0119C2.375 9.83168 9.81996 2.38672 19.0002 2.38672ZM15.5478 24.4119L11.4775 20.3383C10.7841 19.6444 10.7839 18.513 11.4775 17.8193C12.1712 17.1257 13.3077 17.13 13.9964 17.8193L16.8659 20.691L24.0042 13.5527C24.698 12.8589 25.8295 12.8589 26.5231 13.5527C27.2168 14.2462 27.2158 15.3788 26.5231 16.0715L18.1233 24.4714C17.4306 25.1641 16.298 25.1651 15.6044 24.4714C15.5849 24.4519 15.5661 24.4321 15.5478 24.4119Z" fill="#00BA00"/>
</svg>
