<svg width="17" height="18" viewBox="0 0 17 18" fill="none" xmlns="http://www.w3.org/2000/svg">
<path d="M3.44497 11.7383C5.12808 13.7427 7.15417 15.3208 9.46668 16.4375C10.3471 16.8531 11.5246 17.3463 12.8364 17.4308C12.9178 17.4343 12.9955 17.4379 13.0769 17.4379C13.9573 17.4379 14.6645 17.1349 15.2409 16.5114C15.2444 16.5079 15.2515 16.5009 15.255 16.4938C15.4601 16.2472 15.6935 16.0253 15.9374 15.7893C16.1036 15.6308 16.2734 15.4652 16.436 15.2961C17.1892 14.5141 17.1892 13.5208 16.4289 12.7634L14.3038 10.6463C13.9432 10.2729 13.5118 10.0757 13.0592 10.0757C12.6066 10.0757 12.1717 10.2729 11.8004 10.6428L10.5345 11.9039C10.4178 11.837 10.2976 11.7771 10.1845 11.7207C10.043 11.6503 9.91221 11.5833 9.79552 11.5094C8.6428 10.7802 7.59617 9.82908 6.59549 8.60674C6.08986 7.96915 5.75041 7.43372 5.5135 6.88772C5.84588 6.5883 6.15704 6.27479 6.45759 5.96833C6.56367 5.85913 6.67329 5.74993 6.7829 5.64073C7.16478 5.26029 7.36987 4.81996 7.36987 4.37259C7.36987 3.92523 7.16832 3.4849 6.7829 3.10446L5.72919 2.05473C5.60543 1.93144 5.48875 1.81167 5.36852 1.68838C5.13515 1.44885 4.89117 1.20227 4.65073 0.980344C4.28653 0.624563 3.85868 0.437866 3.40608 0.437866C2.95701 0.437866 2.52563 0.624563 2.14728 0.983867L0.824842 2.30131C0.343955 2.78039 0.0716873 3.36161 0.0151123 4.03443C-0.0520705 4.87632 0.103511 5.77106 0.506608 6.8525C1.1254 8.52572 2.05889 10.0792 3.44497 11.7383ZM0.877882 4.1084C0.920313 3.6399 1.10065 3.24889 1.4401 2.91072L2.75547 1.60032C2.96055 1.40305 3.18685 1.3009 3.40608 1.3009C3.62177 1.3009 3.841 1.40305 4.04255 1.60736C4.27946 1.82577 4.50222 2.05473 4.74266 2.29779C4.86289 2.42108 4.98664 2.54437 5.1104 2.67119L6.16411 3.72092C6.38334 3.93932 6.49649 4.16124 6.49649 4.37964C6.49649 4.59804 6.38334 4.81996 6.16411 5.03836C6.0545 5.14756 5.94488 5.26029 5.83527 5.36949C5.50643 5.70061 5.1988 6.01412 4.85935 6.31354C4.85228 6.32058 4.84874 6.32411 4.84167 6.33115C4.54819 6.62353 4.59415 6.90181 4.66487 7.11317C4.66841 7.12373 4.67194 7.13078 4.67548 7.14135C4.94775 7.79303 5.32609 8.413 5.9166 9.15274C6.97738 10.4561 8.09473 11.4671 9.32524 12.2456C9.47729 12.3442 9.63994 12.4217 9.79198 12.4992C9.93342 12.5697 10.0643 12.6366 10.1809 12.7106C10.1951 12.7176 10.2057 12.7246 10.2198 12.7317C10.3365 12.7916 10.4497 12.8198 10.5628 12.8198C10.8457 12.8198 11.0296 12.6401 11.0897 12.5802L12.4121 11.2628C12.6172 11.0585 12.84 10.9493 13.0592 10.9493C13.3279 10.9493 13.5472 11.1148 13.6851 11.2628L15.8172 13.3834C16.2415 13.8061 16.238 14.264 15.8066 14.7114C15.6581 14.8699 15.5025 15.0214 15.3363 15.1799C15.0888 15.4194 14.8307 15.666 14.5973 15.9443C14.1907 16.3811 13.7063 16.5854 13.0804 16.5854C13.0203 16.5854 12.9567 16.5819 12.8965 16.5784C11.7368 16.5044 10.6583 16.0535 9.84856 15.6695C7.6492 14.6092 5.71858 13.1051 4.1168 11.1958C2.7979 9.6142 1.91038 8.14176 1.32341 6.56364C0.959208 5.59493 0.821307 4.81644 0.877882 4.1084Z" fill="white"/>
</svg>
